<svg width="50" height="17" viewBox="0 0 50 17" fill="none" xmlns="http://www.w3.org/2000/svg">
<path fill-rule="evenodd" clip-rule="evenodd" d="M7.79777 7.54614C8.86731 8.23099 9.51532 9.51725 9.26392 10.9292C9.03419 12.2166 7.99716 13.2764 6.71631 13.5451C4.60324 13.9894 2.72749 12.339 2.72749 10.2975V5.28136V3.38178C2.72749 1.87554 1.50624 0.654297 0 0.654297V10.3235H0.00108363C0.00216725 14.0609 3.382 16.9921 7.26896 16.2216C9.55 15.7698 11.4052 13.9439 11.8982 11.6715C12.7478 7.75744 9.78948 4.30068 6.02279 4.30068C6.02279 5.61403 6.69139 6.83745 7.79777 7.54614Z" fill="black"/>
<path fill-rule="evenodd" clip-rule="evenodd" d="M31.4509 5.1663C32.2041 5.1663 32.8607 5.31367 33.422 5.60842C33.9834 5.90425 34.432 6.2716 34.7679 6.71155V5.32234H35.6803C36.2785 5.32234 36.7639 5.80781 36.7639 6.40597V14.8886H34.7679V13.4647C34.432 13.9166 33.9747 14.2926 33.396 14.5928C32.8174 14.894 32.1575 15.0446 31.4163 15.0446C30.5949 15.0446 29.8428 14.8333 29.1601 14.4107C28.4764 13.9881 27.9357 13.3986 27.5369 12.6401C27.137 11.8826 26.9376 11.0222 26.9376 10.0621C26.9376 9.10095 27.137 8.2503 27.5369 7.51018C27.9357 6.76898 28.4796 6.19358 29.1688 5.78288C29.8569 5.37219 30.6176 5.1663 31.4509 5.1663ZM16.94 2.04102C17.5392 2.04102 18.0236 2.52648 18.0236 3.12464V6.74612C18.3595 6.28341 18.8201 5.90414 19.4042 5.60831C19.9882 5.31357 20.6395 5.16619 21.3569 5.16619C22.2021 5.16619 22.966 5.36883 23.6487 5.77411C24.3314 6.17938 24.87 6.75479 25.2633 7.50141C25.6567 8.24802 25.8539 9.10084 25.8539 10.062C25.8539 11.0232 25.6567 11.8825 25.2633 12.64C24.87 13.3985 24.3292 13.988 23.6401 14.4106C22.9519 14.8332 22.1902 15.0445 21.3569 15.0445C20.6167 15.0445 19.9601 14.8993 19.3868 14.61C18.8136 14.3217 18.3595 13.9511 18.0236 13.4993V14.8885H16.0449V2.04102H16.94ZM49.6598 5.32223V14.8885H47.6811V5.32223H49.6598ZM42.6745 5.16663C43.4265 5.16663 44.1005 5.32267 44.6965 5.63475C45.2925 5.94684 45.7585 6.41063 46.0944 7.02396C46.4292 7.63729 46.5972 8.37741 46.5972 9.24648V14.8878H45.7195C45.1213 14.8878 44.6358 14.4035 44.6358 13.8042V9.54122C44.6358 8.68516 44.4213 8.0274 43.9932 7.57011C43.5652 7.1139 42.9801 6.88526 42.2399 6.88526C41.4987 6.88526 40.9114 7.1139 40.478 7.57011C40.0434 8.0274 39.8267 8.68516 39.8267 9.54122V14.8878H37.848V5.32267H39.8267V6.41605C40.1507 6.02269 40.5647 5.71602 41.0685 5.49605C41.5713 5.27607 42.1067 5.16663 42.6745 5.16663ZM31.8681 6.88493C31.3588 6.88493 30.8842 7.00955 30.4442 7.2577C30.0043 7.50693 29.6489 7.87211 29.3769 8.35216C29.1049 8.83221 28.9683 9.40219 28.9683 10.0621C28.9683 10.7221 29.1049 11.3007 29.3769 11.7981C29.6489 12.2955 30.0075 12.6747 30.4529 12.9348C30.8983 13.196 31.3707 13.326 31.8681 13.326C32.3774 13.326 32.8521 13.1981 33.292 12.9435C33.732 12.6899 34.0874 12.3161 34.3594 11.8241C34.6314 11.3321 34.7679 10.7567 34.7679 10.0968C34.7679 9.43687 34.6314 8.86363 34.3594 8.37817C34.0874 7.89162 33.732 7.52102 33.292 7.26637C32.8521 7.0128 32.3774 6.88493 31.8681 6.88493ZM20.9234 6.88482C20.426 6.88482 19.9536 7.01269 19.5082 7.26626C19.0628 7.52091 18.7041 7.89151 18.4321 8.37806C18.1602 8.86352 18.0236 9.43676 18.0236 10.0967C18.0236 10.7566 18.1602 11.332 18.4321 11.824C18.7041 12.316 19.0628 12.6898 19.5082 12.9434C19.9536 13.198 20.426 13.3259 20.9234 13.3259C21.4327 13.3259 21.9095 13.1959 22.356 12.9347C22.8013 12.6746 23.16 12.2954 23.432 11.798C23.704 11.3006 23.8405 10.7219 23.8405 10.062C23.8405 9.40209 23.704 8.8321 23.432 8.35205C23.16 7.87201 22.8013 7.50682 22.356 7.25759C21.9095 7.00944 21.4327 6.88482 20.9234 6.88482ZM48.5767 2.04102C49.1659 2.04102 49.6458 2.5121 49.66 3.09793L49.6603 3.12464V4.01972H47.6816V2.04102H48.5767Z" fill="black"/>
</svg>
