<svg width="38" height="38" viewBox="0 0 38 38" fill="none" xmlns="http://www.w3.org/2000/svg">
<circle cx="18.75" cy="18.75" r="18.75" fill="#F4F3FF"/>
<path d="M12.0073 18.165V21.5325C12.0073 24.9 13.3573 26.25 16.7248 26.25H20.7673C24.1348 26.25 25.4848 24.9 25.4848 21.5325V18.165" stroke="black" stroke-width="1.125" stroke-linecap="round" stroke-linejoin="round"/>
<path d="M18.7499 18.75C20.1224 18.75 21.1349 17.6325 20.9999 16.26L20.5049 11.25H17.0024L16.4999 16.26C16.3649 17.6325 17.3774 18.75 18.7499 18.75Z" stroke="black" stroke-width="1.125" stroke-linecap="round" stroke-linejoin="round"/>
<path d="M23.4821 18.75C24.9971 18.75 26.1071 17.52 25.9571 16.0125L25.7471 13.95C25.4771 12 24.7271 11.25 22.7621 11.25H20.4746L20.9996 16.5075C21.1271 17.745 22.2446 18.75 23.4821 18.75Z" stroke="black" stroke-width="1.125" stroke-linecap="round" stroke-linejoin="round"/>
<path d="M13.9798 18.75C15.2173 18.75 16.3348 17.745 16.4548 16.5075L16.6198 14.85L16.9798 11.25H14.6923C12.7273 11.25 11.9773 12 11.7073 13.95L11.5048 16.0125C11.3548 17.52 12.4648 18.75 13.9798 18.75Z" stroke="black" stroke-width="1.125" stroke-linecap="round" stroke-linejoin="round"/>
<path d="M18.75 22.5C17.4975 22.5 16.875 23.1225 16.875 24.375V26.25H20.625V24.375C20.625 23.1225 20.0025 22.5 18.75 22.5Z" stroke="black" stroke-width="1.125" stroke-linecap="round" stroke-linejoin="round"/>
</svg>
